<svg xmlns="http://www.w3.org/2000/svg" width="32" height="32" viewBox="0 0 32 32">
    <defs>
        <style>
            .cls-1li{fill:#0073b1}
        </style>
    </defs>
    <path id="linkedin" d="M18.916 13.726a2.557 2.557 0 0 0-2.323 1.281v-1.1h-2.58c.034.727 0 7.76 0 7.76h2.579v-4.334a1.751 1.751 0 0 1 .084-.63A1.419 1.419 0 0 1 18 15.76c.933 0 1.306.712 1.306 1.756v4.152h2.58v-4.45c0-2.382-1.274-3.491-2.965-3.491zm-2.326 1.309h-.016a.238.238 0 0 0 .016-.026zM10 13.909h2.579v7.76H10zM16 0a16 16 0 1 0 16 16A16.018 16.018 0 0 0 16 0zm8.49 23.237a1.241 1.241 0 0 1-1.263 1.225H8.668a1.245 1.245 0 0 1-1.261-1.225V8.507a1.241 1.241 0 0 1 1.261-1.224h14.553a1.247 1.247 0 0 1 1.263 1.225V23.23zM11.311 10.168a1.344 1.344 0 1 0-.041 2.681h.017a1.345 1.345 0 1 0 .017-2.681z" class="cls-1li"/>
</svg>
