<svg xmlns="http://www.w3.org/2000/svg" id="Reddit_logo_orange" width="32.002" height="32.002" viewBox="0 0 32.002 32.002">
    <defs>
        <style>
            .cls-1rd{fill:#ff4500}.cls-2rd{fill:#fff}
        </style>
    </defs>
    <path id="Path_2541" d="M16 32A16 16 0 0 1 0 16 16 16 0 0 1 16 0a16 16 0 0 1 16 16 16 16 0 0 1-16 16z" class="cls-1rd" data-name="Path 2541"/>
    <path id="Fill-3" d="M181.324 210.9a1.667 1.667 0 1 1 1.667-1.667 1.67 1.67 0 0 1-1.667 1.667m.294 2.736c-1.139 1.136-3.319 1.226-3.959 1.226s-2.823-.09-3.959-1.226a.432.432 0 0 1 .611-.611 6.245 6.245 0 0 0 6.695 0 .431.431 0 0 1 .611 0 .437.437 0 0 1 0 .611m-9.3-4.4a1.667 1.667 0 1 1 1.667 1.667 1.67 1.67 0 0 1-1.667-1.667m16-1.667a2.331 2.331 0 0 0-3.952-1.677 11.418 11.418 0 0 0-6.24-1.981l1.062-5 3.472.739a1.668 1.668 0 1 0 .17-.816l-3.879-.826a.416.416 0 0 0-.314.058.411.411 0 0 0-.179.262l-1.165 5.488a.449.449 0 0 0 0 .093 11.441 11.441 0 0 0-6.352 1.978 2.332 2.332 0 1 0-2.567 3.811 4.684 4.684 0 0 0-.054.707c0 3.591 4.179 6.5 9.335 6.5s9.335-2.909 9.335-6.5a4.635 4.635 0 0 0-.054-.7 2.343 2.343 0 0 0 1.382-2.135" class="cls-2rd" transform="translate(-161.656 -191.567)"/>
</svg>
