<svg xmlns="http://www.w3.org/2000/svg" width="20.006" height="20.006" viewBox="0 0 20.006 20.006">
    <defs>
        <style>
            .cls-1{fill:#5fa8dd}.cls-2{fill:#fff}
        </style>
    </defs>
    <g id="Group_6607" data-name="Group 6607" transform="translate(-532 -254.4)">
        <g id="_" data-name="+" transform="translate(532 254.4)">
            <path id="Path_2544" d="M10 0A10 10 0 1 1 0 10 10 10 0 0 1 10 0z" class="cls-1" data-name="Path 2544"/>
        </g>
        <g id="Group_6606" data-name="Group 6606" transform="translate(536.891 260.146)">
            <g id="Group_6605" data-name="Group 6605">
                <path id="Path_2545" d="M-6.735-.627a4.15 4.15 0 0 1-1.214.34 2.153 2.153 0 0 0 .929-1.194 4.16 4.16 0 0 1-1.342.523A2.089 2.089 0 0 0-9.9-1.639 2.136 2.136 0 0 0-12.017.52a2.16 2.16 0 0 0 .054.492 5.959 5.959 0 0 1-4.357-2.256 2.2 2.2 0 0 0-.285 1.086 2.172 2.172 0 0 0 .94 1.8 2.081 2.081 0 0 1-.958-.269V1.4a2.149 2.149 0 0 0 1.7 2.117 2.021 2.021 0 0 1-.558.076 2.048 2.048 0 0 1-.4-.038 2.118 2.118 0 0 0 1.974 1.5 4.182 4.182 0 0 1-2.624.925 4.231 4.231 0 0 1-.5-.03 5.9 5.9 0 0 0 3.239.97A6.042 6.042 0 0 0-7.783.771c0-.094 0-.188-.006-.279A4.353 4.353 0 0 0-6.735-.627" class="cls-2" data-name="Path 2545" transform="translate(17.037 1.639)"/>
            </g>
        </g>
    </g>
</svg>
